<svg xmlns="http://www.w3.org/2000/svg" viewBox="624 58 117.699 30.632">
  <defs>
    <style>
      .cls-1 {
        fill: #fff;
      }
    </style>
  </defs>
  <path id="Subtraction_3" data-name="Subtraction 3" class="cls-1" d="M1.3,36.188h0V30H6.52V27.93a4.32,4.32,0,0,0,1.89,1.7,6.314,6.314,0,0,0,2.79.615,6.22,6.22,0,0,0,3.48-1.005,6.6,6.6,0,0,0,2.01-2.1V30H22.12V27.411a4.8,4.8,0,0,0,.765,1.209,5.494,5.494,0,0,0,4.334,1.62,4.863,4.863,0,0,0,4.351-2.28V30h5.31V26.925a6.865,6.865,0,0,0,2.7,2.354,10.062,10.062,0,0,0,4.53.96,11.425,11.425,0,0,0,3.24-.48,8.911,8.911,0,0,0,2.76-1.32l-.677-1.765A6.729,6.729,0,0,0,50.59,28.14a8.433,8.433,0,0,0,6.06,2.1,12.428,12.428,0,0,0,3.5-.48,7.585,7.585,0,0,0,2.1-.948A5.64,5.64,0,0,0,66.4,30.24a4.862,4.862,0,0,0,4.35-2.28V30H80.86V27.93a4.32,4.32,0,0,0,1.89,1.7,6.314,6.314,0,0,0,2.79.615,6.22,6.22,0,0,0,3.48-1.005,6.789,6.789,0,0,0,2.341-2.7A6.831,6.831,0,0,0,94.3,29.28a10.062,10.062,0,0,0,4.53.96,11.425,11.425,0,0,0,3.24-.48,8.911,8.911,0,0,0,2.76-1.32l-1.381-3.6a7.74,7.74,0,0,1-2.07,1.035,7.283,7.283,0,0,1-2.28.375,3.719,3.719,0,0,1-2.55-.78,3.741,3.741,0,0,1-1.021-2.55H105.1V22.2a9.413,9.413,0,0,0-.87-4.155,6.351,6.351,0,0,0-2.49-2.745,7.309,7.309,0,0,0-3.78-.96,7.634,7.634,0,0,0-3.945,1.021,7.151,7.151,0,0,0-2.609,2.67,6.5,6.5,0,0,0-2.356-2.715,6.412,6.412,0,0,0-3.51-.976,6.04,6.04,0,0,0-2.73.616,4.7,4.7,0,0,0-1.89,1.634V7.92H75.49v6.84H70.57V23.1a3.189,3.189,0,0,1-.7,2.16,2.338,2.338,0,0,1-1.845.81c-1.294,0-1.95-.757-1.95-2.25V14.76H60.64v.223c-.14-.049-.291-.1-.45-.148a11.305,11.305,0,0,0-3.3-.5,9.483,9.483,0,0,0-4.44,1.005,7.323,7.323,0,0,0-2.925,2.732c0-.011-.01-.021-.015-.032A6.352,6.352,0,0,0,47.02,15.3a7.309,7.309,0,0,0-3.78-.96,7.634,7.634,0,0,0-3.945,1.021,7.116,7.116,0,0,0-2.415,2.346V14.76H31.39V23.1a3.185,3.185,0,0,1-.706,2.16,2.338,2.338,0,0,1-1.845.81c-1.294,0-1.949-.757-1.949-2.25V14.76H22.12V9.038L104.36,5.557,119,36ZM44.38,26.25a3.719,3.719,0,0,1-2.55-.78,3.741,3.741,0,0,1-1.021-2.55h7.6a9.368,9.368,0,0,0,.284,1.945,7.778,7.778,0,0,1-2.035,1.01A7.283,7.283,0,0,1,44.38,26.25Zm39.51-.06a2.707,2.707,0,0,1-2.25-.99,4.649,4.649,0,0,1-.78-2.91,4.539,4.539,0,0,1,.78-2.85,2.707,2.707,0,0,1,2.25-.99,2.64,2.64,0,0,1,2.22.975,4.554,4.554,0,0,1,.75,2.805,4.859,4.859,0,0,1-.765,2.94A2.6,2.6,0,0,1,83.89,26.19Zm-74.34,0A2.707,2.707,0,0,1,7.3,25.2a4.649,4.649,0,0,1-.78-2.91,4.539,4.539,0,0,1,.78-2.85,2.707,2.707,0,0,1,2.25-.99,2.64,2.64,0,0,1,2.22.975,4.554,4.554,0,0,1,.75,2.805,4.859,4.859,0,0,1-.765,2.94A2.6,2.6,0,0,1,9.55,26.19Zm47.91-.03a3.39,3.39,0,0,1-2.61-.976,4.151,4.151,0,0,1-.9-2.894,4.048,4.048,0,0,1,.9-2.85,3.381,3.381,0,0,1,2.58-.96,6.116,6.116,0,0,1,2.07.391,6.9,6.9,0,0,1,1.14.53v4.27a12.847,12.847,0,0,0,.085,1.52,6.79,6.79,0,0,1-1.21.58A5.994,5.994,0,0,1,57.46,26.16Zm42.99-5.76H95.59c.339-1.553,1.187-2.34,2.52-2.34,1.354,0,2.141.787,2.34,2.339Zm-54.72,0H40.87c.339-1.553,1.187-2.34,2.52-2.34,1.354,0,2.141.787,2.34,2.339ZM16.69,17.344l0,0a6.307,6.307,0,0,0-1.978-2.026,6.412,6.412,0,0,0-3.51-.976,6.04,6.04,0,0,0-2.73.616A4.7,4.7,0,0,0,6.58,16.59V9.7l10.11-.428v8.076Z" transform="translate(622.7 52.443)"/>
</svg>
